<svg width="720" height="900" viewBox="0 0 720 900" fill="none" xmlns="http://www.w3.org/2000/svg">
  <defs>
    <linearGradient id="bg" x1="120" y1="0" x2="620" y2="900" gradientUnits="userSpaceOnUse">
      <stop stop-color="#102033"/>
      <stop offset="1" stop-color="#070B12"/>
    </linearGradient>
    <linearGradient id="metal" x1="245" y1="120" x2="470" y2="780" gradientUnits="userSpaceOnUse">
      <stop stop-color="#EEF3F8"/>
      <stop offset="0.48" stop-color="#BFC9D4"/>
      <stop offset="1" stop-color="#7E8B99"/>
    </linearGradient>
    <linearGradient id="darkMetal" x1="255" y1="160" x2="455" y2="740" gradientUnits="userSpaceOnUse">
      <stop stop-color="#27364A"/>
      <stop offset="1" stop-color="#0E1622"/>
    </linearGradient>
    <linearGradient id="blueGlow" x1="0" y1="0" x2="0" y2="1">
      <stop stop-color="#7CF4FF"/>
      <stop offset="1" stop-color="#1F8BFF"/>
    </linearGradient>
    <radialGradient id="ambient" cx="0" cy="0" r="1" gradientUnits="userSpaceOnUse" gradientTransform="translate(360 360) scale(280 320)">
      <stop stop-color="#1B4367" stop-opacity="0.45"/>
      <stop offset="1" stop-color="#0A0F18" stop-opacity="0"/>
    </radialGradient>
  </defs>

  <rect width="720" height="900" rx="42" fill="url(#bg)"/>
  <rect width="720" height="900" rx="42" fill="url(#ambient)"/>
  <path d="M70 118H650" stroke="rgba(124,244,255,0.12)" stroke-width="2"/>
  <path d="M70 142H650" stroke="rgba(124,244,255,0.08)" stroke-width="1"/>
  <path d="M68 818C144 760 234 732 360 732C486 732 576 760 652 818" stroke="rgba(124,244,255,0.18)" stroke-width="8" stroke-linecap="round"/>

  <g transform="translate(184 84)">
    <ellipse cx="166" cy="34" rx="50" ry="46" fill="url(#metal)" stroke="#07111B" stroke-width="6"/>
    <path d="M130 38C142 8 156 -4 166 -4C176 -4 190 8 202 38C190 60 178 72 166 72C154 72 142 60 130 38Z" fill="#253446" stroke="#07111B" stroke-width="6"/>
    <rect x="148" y="102" width="36" height="28" rx="12" fill="#0B1018" stroke="#09111A" stroke-width="4"/>
    <rect x="157" y="112" width="18" height="8" rx="4" fill="url(#blueGlow)">
      <animate attributeName="opacity" values="0.65;1;0.55;1;0.65" dur="1.5s" repeatCount="indefinite"/>
    </rect>

    <path d="M92 154C106 128 126 118 166 118C206 118 226 128 240 154V208C226 232 206 244 166 244C126 244 106 232 92 208V154Z" fill="url(#metal)" stroke="#07111B" stroke-width="6"/>
    <rect x="116" y="160" width="100" height="24" rx="12" fill="url(#darkMetal)" stroke="#0C121B" stroke-width="4"/>
    <path d="M128 166H204" stroke="rgba(124,244,255,0.28)" stroke-width="4"/>
    <path d="M128 178H204" stroke="rgba(124,244,255,0.28)" stroke-width="4"/>
    <rect x="140" y="120" width="10" height="34" fill="url(#blueGlow)"/>
    <rect x="210" y="120" width="10" height="34" fill="url(#blueGlow)"/>
    <path d="M164 238V278" stroke="#07111B" stroke-width="10" stroke-linecap="round"/>
    <circle cx="170" cy="250" r="10" fill="url(#blueGlow)">
      <animate attributeName="opacity" values="0.5;1;0.65;1;0.5" dur="1.3s" repeatCount="indefinite"/>
    </circle>

    <path d="M94 226L74 260L90 302L118 284L118 236L94 226Z" fill="url(#metal)" stroke="#07111B" stroke-width="6"/>
    <path d="M226 226L246 260L230 302L202 284L202 236L226 226Z" fill="url(#metal)" stroke="#07111B" stroke-width="6"/>
    <path d="M86 262H118" stroke="url(#blueGlow)" stroke-width="8" stroke-linecap="round"/>
    <path d="M202 262H234" stroke="url(#blueGlow)" stroke-width="8" stroke-linecap="round"/>

    <path d="M100 320C116 320 128 332 128 348V426C128 448 120 472 108 494L88 518L58 500V338C58 322 72 314 100 314Z" fill="url(#metal)" stroke="#07111B" stroke-width="6"/>
    <path d="M262 314C290 314 304 322 304 338V500L274 518L254 494C242 472 234 448 234 426V348C234 332 246 320 262 320Z" fill="url(#metal)" stroke="#07111B" stroke-width="6"/>
    <rect x="104" y="352" width="20" height="118" rx="10" fill="url(#darkMetal)" stroke="#0C121B" stroke-width="4"/>
    <rect x="204" y="352" width="20" height="118" rx="10" fill="url(#darkMetal)" stroke="#0C121B" stroke-width="4"/>
    <rect x="86" y="332" width="16" height="16" rx="4" fill="url(#blueGlow)">
      <animate attributeName="opacity" values="0.65;1;0.55;1;0.65" dur="1.2s" repeatCount="indefinite"/>
    </rect>
    <rect x="240" y="332" width="16" height="16" rx="4" fill="url(#blueGlow)">
      <animate attributeName="opacity" values="0.65;1;0.55;1;0.65" dur="1.2s" repeatCount="indefinite"/>
    </rect>
    <path d="M88 430H124" stroke="url(#blueGlow)" stroke-width="10" stroke-linecap="round"/>
    <path d="M226 430H262" stroke="url(#blueGlow)" stroke-width="10" stroke-linecap="round"/>

    <path d="M128 452C144 452 158 464 158 480V504C158 522 156 536 148 548H108C100 536 98 522 98 504V480C98 464 112 452 128 452Z" fill="#B7C3CF" stroke="#07111B" stroke-width="6"/>
    <path d="M192 452C208 452 222 464 222 480V504C222 522 220 536 212 548H188C180 536 178 522 178 504V480C178 464 192 452 208 452Z" fill="#B7C3CF" stroke="#07111B" stroke-width="6"/>
    <path d="M138 458H152V494L146 538H124L118 494L138 458Z" fill="#1D2A3A" stroke="#0C121B" stroke-width="4"/>
    <path d="M196 458H210V494L214 538H192L184 494L196 458Z" fill="#1D2A3A" stroke="#0C121B" stroke-width="4"/>
    <rect x="120" y="520" width="38" height="20" rx="8" fill="url(#blueGlow)"/>
    <rect x="196" y="520" width="38" height="20" rx="8" fill="url(#blueGlow)"/>

    <path d="M58 500H102L110 556H82L38 540L58 500Z" fill="url(#metal)" stroke="#07111B" stroke-width="6"/>
    <path d="M304 500H262L254 556H284L328 540L304 500Z" fill="url(#metal)" stroke="#07111B" stroke-width="6"/>

    <path d="M112 610C138 610 154 610 212 610V680C212 700 198 714 180 714H144C126 714 112 700 112 680V610Z" fill="url(#metal)" stroke="#07111B" stroke-width="6"/>
    <path d="M124 628H200V668L186 692H138L124 668V628Z" fill="url(#darkMetal)" stroke="#0C121B" stroke-width="4"/>
    <rect x="146" y="646" width="42" height="18" rx="9" fill="url(#blueGlow)">
      <animate attributeName="opacity" values="0.55;1;0.6;1;0.55" dur="1.1s" repeatCount="indefinite"/>
    </rect>

    <path d="M164 694V740" stroke="#07111B" stroke-width="12" stroke-linecap="round"/>
    <path d="M118 736H210L218 772H110L118 736Z" fill="url(#metal)" stroke="#07111B" stroke-width="6"/>
    <path d="M220 736H318L330 772H228L220 736Z" fill="url(#metal)" stroke="#07111B" stroke-width="6"/>
    <rect x="108" y="742" width="22" height="18" rx="4" fill="url(#blueGlow)"/>
    <rect x="298" y="742" width="22" height="18" rx="4" fill="url(#blueGlow)"/>

    <g transform="translate(226 214) rotate(-28)">
      <path d="M4 330H40L58 176H-14L4 330Z" fill="#1B2737" stroke="#07111B" stroke-width="6"/>
      <path d="M14 192H30L26 328H18L14 192Z" fill="url(#blueGlow)" opacity="0.85">
        <animate attributeName="opacity" values="0.65;1;0.7;1;0.65" dur="1.1s" repeatCount="indefinite"/>
      </path>
      <path d="M-10 174H54L66 150H-22L-10 174Z" fill="#F2D08D" stroke="#24150A" stroke-width="5"/>
      <path d="M-18 150H62L46 114C36 88 30 58 28 26C26 58 20 88 10 114L-18 150Z" fill="#FF5A1E" stroke="#FFE7A2" stroke-width="5">
        <animate attributeName="opacity" values="0.9;1;0.78;1;0.9" dur="0.85s" repeatCount="indefinite"/>
      </path>
      <path d="M2 142H42L34 112H10L2 142Z" fill="#FFF4C0" opacity="0.92">
        <animate attributeName="opacity" values="0.7;1;0.8;1;0.7" dur="0.65s" repeatCount="indefinite"/>
      </path>
      <path d="M26 26C34 54 40 82 48 110C54 130 60 144 64 156" stroke="rgba(255,255,255,0.72)" stroke-width="4" stroke-linecap="round" stroke-dasharray="12 10">
        <animate attributeName="stroke-dashoffset" values="0;22" dur="0.75s" repeatCount="indefinite"/>
      </path>
      <ellipse cx="24" cy="166" rx="52" ry="24" fill="rgba(255,104,29,0.22)">
        <animate attributeName="opacity" values="0.2;0.7;0.3;0.7;0.2" dur="0.85s" repeatCount="indefinite"/>
      </ellipse>
      <path d="M-2 172H58" stroke="rgba(255,181,61,0.55)" stroke-width="12" stroke-linecap="round">
        <animate attributeName="opacity" values="0.45;1;0.55;1;0.45" dur="0.85s" repeatCount="indefinite"/>
      </path>
    </g>
  </g>

  <g opacity="0.9">
    <path d="M322 510L370 474L412 510L370 544L322 510Z" fill="rgba(124,244,255,0.18)"/>
    <path d="M332 510H408" stroke="url(#blueGlow)" stroke-width="14" stroke-linecap="round"/>
    <path d="M350 492H390" stroke="url(#blueGlow)" stroke-width="10" stroke-linecap="round"/>
  </g>

  <rect x="244" y="676" width="232" height="74" rx="26" fill="#11192C" stroke="rgba(124,247,255,0.2)" stroke-width="2"/>
  <text x="360" y="721" fill="#DCE6F4" font-family="Arial, Helvetica, sans-serif" font-size="28" font-weight="700" text-anchor="middle" letter-spacing="4">FireMech</text>
</svg>
